# xmcd
#
# Track frame offsets:
# 150
# 15840
# 30547
# 51994
# 72863
# 90930
# 103429
# 127783
# 144708
# 161235
# 177599
# 193771
# 212071
# 236803
#
# Disc length: 3306 seconds
#
#
# Revision: 4
# Processed by: cddbd v1.5.1PL2 Copyright (c) Steve Scherf et al.
# Submitted via: FreeRIP 2.945 
#
DISCID=c50ce80e
DTITLE=Johnny Winter - Hey, Where's Your Brother
DYEAR=1992
DGENRE=Blues
TTITLE0=Johnny Guitar
TTITLE1=She Likes To Boogie Real Low
TTITLE2=White Line Blues
TTITLE3=Please Come Home For Christmas
TTITLE4=Hard Way
TTITLE5=You Must Have A Twin
TTITLE6=You Keep Sayin' That You're Leavin'
TTITLE7=Treat Me Like You Wanta
TTITLE8=Sick And Tired
TTITLE9=Blues This Bad
TTITLE10=No More Doggin'
TTITLE11=Check Out Her Mama
TTITLE12=Got My Brand On You
TTITLE13=One Step Forward (Two Steps Back)
EXTD=
EXTT0=
EXTT1=
EXTT2=
EXTT3=
EXTT4=
EXTT5=
EXTT6=
EXTT7=
EXTT8=
EXTT9=
EXTT10=
EXTT11=
EXTT12=
EXTT13=
PLAYORDER=
